
<svg width="320px" height="92px" viewBox="0 0 320 92" version="1.1" xmlns="http://www.w3.org/2000/svg" xmlns:xlink="http://www.w3.org/1999/xlink">
    <!-- Generator: Sketch 45.1 (43504) - http://www.bohemiancoding.com/sketch -->
    <desc>Created with Sketch.</desc>
    <defs></defs>
    <g id="Symbols" stroke="none" stroke-width="1" fill="none" fill-rule="evenodd">
        <g id="Header---Tall" transform="translate(-110.000000, -38.000000)">
            <g id="Group-2" transform="translate(110.000000, 38.000000)">
                <g id="Group-3">
                    <g id="RightOnCourse_CLR_455x110" fill-rule="nonzero">
                        <path d="M28.9147982,67.8744395 C25.9730942,70.8161435 22.0986547,72.5381166 17.0044843,72.5381166 C11.9103139,72.5381166 8.10762332,70.8878924 5.0941704,67.8744395 C0.573991031,63.3542601 0.430493274,58.7623318 0.430493274,49.1479821 C0.430493274,39.5336323 0.573991031,34.941704 5.0941704,30.4215247 C8.03587444,27.4798206 11.9103139,25.7578475 17.0044843,25.7578475 C22.0986547,25.7578475 25.9013453,27.4080717 28.9147982,30.4215247 C33.4349776,34.941704 33.5784753,39.5336323 33.5784753,49.1479821 C33.5067265,58.7623318 33.4349776,63.3542601 28.9147982,67.8744395 Z M23.8206278,34.8699552 C22.0986547,33.0762332 19.7309417,32 17.0044843,32 C14.206278,32 11.9103139,33.0044843 10.1883408,34.8699552 C7.96412556,37.309417 7.46188341,40.1076233 7.46188341,49.2197309 C7.46188341,58.3318386 7.89237668,60.9865471 10.1883408,63.426009 C11.9103139,65.2197309 14.2780269,66.2959641 17.0044843,66.2959641 C19.8026906,66.2959641 22.0986547,65.2197309 23.8206278,63.426009 C26.1165919,61.058296 26.5470852,58.2600897 26.5470852,49.1479821 C26.5470852,40.0358744 26.1883408,37.2376682 23.8206278,34.8699552 Z" id="Shape" fill="#8CA2C7"></path>
                        <polygon id="Shape" fill="#8CA2C7" points="69.955157 72.1793722 48.7174888 39.8206278 48.7174888 72.1793722 41.7578475 72.1793722 41.7578475 26.1883408 48.0717489 26.1883408 69.309417 58.4753363 69.309417 26.1883408 76.2690583 26.1883408 76.2690583 72.1793722"></polygon>
                        <path d="M102.457399,72.5381166 C97.4349776,72.5381166 93.5605381,70.8878924 90.5470852,67.8744395 C86.0986547,63.3542601 85.8834081,58.7623318 85.8834081,49.1479821 C85.8834081,39.5336323 86.0986547,34.941704 90.5470852,30.4215247 C93.4887892,27.4798206 97.3632287,25.7578475 102.457399,25.7578475 C110.923767,25.7578475 117.237668,30.7802691 118.887892,39.8923767 L111.784753,39.8923767 C110.780269,35.1569507 107.623318,31.9282511 102.457399,31.9282511 C99.6591928,31.9282511 97.3632287,32.9327354 95.6412556,34.7982063 C93.3452915,37.2376682 92.8430493,40.0358744 92.8430493,49.1479821 C92.8430493,58.2600897 93.2735426,61.058296 95.6412556,63.4977578 C97.2914798,65.2914798 99.6591928,66.367713 102.457399,66.367713 C107.55157,66.367713 110.780269,63.1390135 111.856502,58.4035874 L118.816143,58.4035874 C117.237668,67.5156951 110.852018,72.5381166 102.457399,72.5381166 Z" id="Shape" fill="#476EA5"></path>
                        <path d="M154.26009,67.8744395 C151.318386,70.8161435 147.443946,72.5381166 142.349776,72.5381166 C137.327354,72.5381166 133.452915,70.8878924 130.439462,67.8744395 C125.919283,63.3542601 125.775785,58.7623318 125.775785,49.1479821 C125.775785,39.5336323 125.919283,34.941704 130.439462,30.4215247 C133.381166,27.4798206 137.255605,25.7578475 142.349776,25.7578475 C147.372197,25.7578475 151.246637,27.4080717 154.26009,30.4215247 C158.780269,34.941704 158.923767,39.5336323 158.923767,49.1479821 C158.923767,58.7623318 158.780269,63.3542601 154.26009,67.8744395 Z M149.237668,34.8699552 C147.515695,33.0762332 145.147982,32 142.421525,32 C139.623318,32 137.327354,33.0044843 135.605381,34.8699552 C133.309417,37.309417 132.878924,40.1076233 132.878924,49.2197309 C132.878924,58.3318386 133.309417,61.058296 135.605381,63.4977578 C137.327354,65.2914798 139.695067,66.367713 142.421525,66.367713 C145.219731,66.367713 147.515695,65.2914798 149.237668,63.4977578 C151.533632,61.1300448 151.964126,58.3318386 151.964126,49.2197309 C151.964126,40.1076233 151.533632,37.2376682 149.237668,34.8699552 Z" id="Shape" fill="#476EA5"></path>
                        <path d="M183.533632,72.5381166 C174.206278,72.5381166 167.103139,66.1524664 167.103139,56.6816143 L167.103139,26.1883408 L174.06278,26.1883408 L174.06278,56.32287 C174.06278,62.4215247 177.793722,66.2959641 183.533632,66.2959641 C189.273543,66.2959641 193.076233,62.4932735 193.076233,56.32287 L193.076233,26.1883408 L200.035874,26.1883408 L200.035874,56.6816143 C200.107623,66.1524664 192.932735,72.5381166 183.533632,72.5381166 Z" id="Shape" fill="#476EA5"></path>
                        <path d="M235.336323,72.1793722 L225.650224,52.8071749 L216.896861,52.8071749 L216.896861,72.1793722 L209.93722,72.1793722 L209.93722,26.1883408 L227.730942,26.1883408 C236.412556,26.1883408 242.008969,31.7847534 242.008969,39.6053812 C242.008969,46.206278 237.991031,50.367713 232.825112,51.8026906 L243.443946,72.1076233 L235.336323,72.1076233 L235.336323,72.1793722 Z M227.2287,32.4304933 L216.896861,32.4304933 L216.896861,46.8520179 L227.2287,46.8520179 C231.892377,46.8520179 235.049327,44.1973094 235.049327,39.67713 C235.049327,35.1569507 231.892377,32.4304933 227.2287,32.4304933 Z" id="Shape" fill="#476EA5"></path>
                        <path d="M264.466368,72.5381166 C257.578475,72.5381166 252.627803,70.9596413 248.179372,66.4394619 L252.7713,61.8475336 C256.143498,65.2197309 259.946188,66.2959641 264.609865,66.2959641 C270.70852,66.2959641 274.080717,63.7130045 274.080717,59.1928251 C274.080717,57.1121076 273.578475,55.5336323 272.286996,54.3856502 C271.139013,53.3811659 269.560538,52.8071749 267.264574,52.4484305 L261.811659,51.6591928 C258.080717,51.0852018 255.139013,49.9372197 253.130045,48 C250.834081,45.9192825 249.686099,42.9775785 249.686099,39.1748879 C249.686099,31.1390135 255.497758,25.7578475 265.040359,25.7578475 C271.139013,25.7578475 275.372197,27.3363229 279.318386,30.9955157 L274.941704,35.3721973 C272.071749,32.6457399 268.7713,31.7847534 264.825112,31.7847534 C259.372197,31.7847534 256.502242,34.7264574 256.502242,38.9596413 C256.502242,40.6098655 256.932735,42.1883408 258.152466,43.1928251 C259.300448,44.1973094 260.663677,44.8430493 263.174888,45.2735426 L268.627803,46.1345291 C272.860987,46.7802691 275.156951,47.7130045 277.165919,49.5784753 C279.605381,51.8744395 280.896861,55.0313901 280.896861,58.9775785 C280.96861,67.5156951 274.152466,72.5381166 264.466368,72.5381166 Z" id="Shape" fill="#476EA5"></path>
                        <polygon id="Shape" fill="#476EA5" points="290.367713 72.1793722 290.367713 26.1883408 319.713004 26.1883408 319.713004 32.4304933 297.327354 32.4304933 297.327354 45.8475336 316.412556 45.8475336 316.412556 52.0179372 297.327354 52.0179372 297.327354 65.8654709 319.713004 65.8654709 319.713004 72.1076233 290.367713 72.1076233"></polygon>
                        <g id="Group" transform="translate(0.717489, 0.000000)" fill="#476EA5">
                            <path d="M11.264574,20.8071749 L6.95964126,12.1973094 L3.08520179,12.1973094 L3.08520179,20.8071749 L0,20.8071749 L0,0.358744395 L7.89237668,0.358744395 C11.7668161,0.358744395 14.206278,2.86995516 14.206278,6.31390135 C14.206278,9.25560538 12.4125561,11.1210762 10.1165919,11.7668161 L14.9237668,20.8071749 L11.264574,20.8071749 Z M7.67713004,3.15695067 L3.08520179,3.15695067 L3.08520179,9.5426009 L7.67713004,9.5426009 C9.75784753,9.5426009 11.1210762,8.39461883 11.1210762,6.38565022 C11.1928251,4.37668161 9.75784753,3.15695067 7.67713004,3.15695067 Z" id="Shape"></path>
                            <polygon id="Shape" points="18.7982063 20.8071749 18.7982063 0.358744395 21.8834081 0.358744395 21.8834081 20.8071749"></polygon>
                            <path d="M39.4618834,18.6547085 C37.955157,20.2331839 36.0179372,20.9506726 33.8654709,20.9506726 C31.6412556,20.9506726 29.9192825,20.2331839 28.5560538,18.8699552 C26.5470852,16.8609865 26.4753363,14.8520179 26.4753363,10.5470852 C26.4753363,6.24215247 26.5470852,4.23318386 28.5560538,2.22421525 C29.8475336,0.932735426 31.5695067,0.143497758 33.8654709,0.143497758 C38.1704036,0.143497758 40.7533632,3.01345291 41.2556054,6.4573991 L38.1704036,6.4573991 C37.6681614,4.23318386 36.161435,2.86995516 33.8654709,2.86995516 C32.6457399,2.86995516 31.5695067,3.30044843 30.8520179,4.16143498 C29.8475336,5.23766816 29.632287,6.4573991 29.632287,10.5470852 C29.632287,14.5650224 29.8475336,15.8565022 30.8520179,16.9327354 C31.6412556,17.7219731 32.6457399,18.2242152 33.8654709,18.2242152 C35.2286996,18.2242152 36.4484305,17.7219731 37.2376682,16.7892377 C37.955157,15.9282511 38.2421525,14.9237668 38.2421525,13.5605381 L38.2421525,12.4125561 L33.8654709,12.4125561 L33.8654709,9.75784753 L41.3273543,9.75784753 L41.3273543,12.9147982 C41.3273543,15.5695067 40.8251121,17.2197309 39.4618834,18.6547085 Z" id="Shape"></path>
                            <polygon id="Shape" points="57.2556054 20.8071749 57.2556054 11.9103139 49.0044843 11.9103139 49.0044843 20.8071749 45.9192825 20.8071749 45.9192825 0.358744395 49.0044843 0.358744395 49.0044843 9.11210762 57.3273543 9.11210762 57.3273543 0.358744395 60.4125561 0.358744395 60.4125561 20.8071749"></polygon>
                            <polygon id="Shape" points="72.6098655 3.15695067 72.6098655 20.8071749 69.5246637 20.8071749 69.5246637 3.15695067 63.9282511 3.15695067 63.9282511 0.358744395 78.2780269 0.358744395 78.2780269 3.15695067"></polygon>
                        </g>
                    </g>
                    <text id="powered-by-RightEver" font-family=".AppleSystemUIFont" font-size="15" font-weight="normal" line-spacing="50" fill="#494B54">
                        <tspan x="0" y="72.0089686">powered by RightEverywhere</tspan>
                        <tspan x="199.658203" y="72.0089686" font-size="8">®`</tspan>
                    </text>
                </g>
            </g>
        </g>
    </g>
</svg>